<svg width="967" height="688" viewBox="0 0 967 688" fill="none" xmlns="http://www.w3.org/2000/svg">
<path d="M484 648.5C380.4 571.3 226.167 507 162 509.5L328 470.5C368.167 479.167 455.6 504.5 484 536.5C484 568.5 484 641.167 484 648.5ZM484 648.5V654M484 654C401.167 634.333 189.6 600.9 6 624.5M484 654V681.5C244 635.5 65.3333 644 6 654V624.5M6 624.5L220 570.5" stroke="#774C75" stroke-width="12" stroke-linecap="round" stroke-linejoin="round"/>
<path d="M483 649C586.6 571.8 740.833 507.5 805 510L639 471C598.833 479.667 511.4 505 483 537C483 569 483 641.667 483 649ZM483 649V654.5M483 654.5C565.833 634.833 777.4 601.4 961 625M483 654.5V682C723 636 901.667 644.5 961 654.5V625M961 625L747 571" stroke="#774C75" stroke-width="12" stroke-linecap="round" stroke-linejoin="round"/>
<path d="M483 648.5C401.333 621 208.8 546.1 86 562.5L253.5 528" stroke="#774C75" stroke-width="12" stroke-linecap="round" stroke-linejoin="round"/>
<path d="M484 649C565.667 621.5 758.2 546.6 881 563L713.5 528.5" stroke="#774C75" stroke-width="12" stroke-linecap="round" stroke-linejoin="round"/>
<path d="M430.172 247.086L432.516 135.758C443.453 134.977 451.721 134.586 457.32 134.586C475.81 134.586 490.523 138.753 501.461 147.086C512.398 155.289 517.867 168.31 517.867 186.148C517.867 226.773 488.635 247.086 430.172 247.086ZM432.125 395.719L430.172 259C440.589 258.219 450.745 257.828 460.641 257.828C488.635 257.828 510.901 262.971 527.438 273.258C543.974 283.544 552.242 299.755 552.242 321.891C552.242 334.911 549.833 346.109 545.016 355.484C540.198 364.729 534.143 371.891 526.852 376.969C519.69 382.047 510.38 386.083 498.922 389.078C487.464 391.943 476.786 393.766 466.891 394.547C457.125 395.328 445.536 395.719 432.125 395.719ZM462.203 387.32C473.922 386.539 484.208 385.172 493.062 383.219C502.047 381.266 510.576 378.01 518.648 373.453C526.852 368.896 533.167 362.32 537.594 353.727C542.021 345.003 544.234 334.391 544.234 321.891C544.234 308.479 539.677 297.216 530.562 288.102C521.448 278.857 510.706 272.607 498.336 269.352C485.966 265.966 473.271 264.924 460.25 266.227L462.203 387.32ZM462.203 142.984L460.641 237.711C493.453 232.763 509.859 215.576 509.859 186.148C509.859 159.195 493.974 144.807 462.203 142.984ZM349.312 410.172C374.703 409.391 404.977 409 440.133 409C451.852 409 462.398 408.74 471.773 408.219C481.148 407.698 492.346 406.591 505.367 404.898C518.388 403.076 529.781 400.146 539.547 396.109C549.312 391.943 558.688 386.799 567.672 380.68C576.786 374.43 583.753 366.292 588.57 356.266C593.388 346.109 595.797 334.326 595.797 320.914C595.797 300.471 587.789 283.74 571.773 270.719C555.758 257.568 536.031 249.104 512.594 245.328V243.766C527.828 238.948 540.068 231.786 549.312 222.281C558.688 212.646 563.375 200.602 563.375 186.148C563.375 143.31 530.823 121.891 465.719 121.891C460.641 121.891 452.112 122.151 440.133 122.672C428.154 123.193 414.872 123.453 400.289 123.453C385.836 123.453 368.974 122.932 349.703 121.891C348.661 124.234 348.661 127.294 349.703 131.07C379.651 133.935 394.755 140.185 395.016 149.82C396.318 180.419 396.969 216.812 396.969 259C396.969 300.276 396.188 341.357 394.625 382.242C394.365 391.878 379.26 398.128 349.312 400.992C348.271 403.076 348.271 406.135 349.312 410.172ZM344.234 113.492C363.115 114.273 380.953 114.664 397.75 114.664C414.547 114.664 430.953 114.534 446.969 114.273C462.984 114.013 473.922 113.883 479.781 113.883C490.719 113.883 500.615 114.273 509.469 115.055C518.453 115.836 528.414 117.724 539.352 120.719C550.289 123.583 559.469 127.49 566.891 132.438C574.443 137.385 580.758 144.482 585.836 153.727C590.914 162.841 593.453 173.648 593.453 186.148C593.453 209.326 580.628 228.01 554.977 242.203C576.07 248.323 593.128 258.154 606.148 271.695C619.299 285.107 625.875 301.513 625.875 320.914C625.875 333.544 623.727 344.872 619.43 354.898C615.133 364.794 609.664 373.062 603.023 379.703C596.383 386.214 587.919 391.878 577.633 396.695C567.346 401.383 557.451 405.029 547.945 407.633C538.44 410.107 527.503 412.06 515.133 413.492C502.763 415.055 492.151 416.031 483.297 416.422C474.573 416.812 464.872 417.008 454.195 417.008C423.206 417.008 386.422 417.529 343.844 418.57C340.589 409.586 340.589 401.188 343.844 393.375C372.099 390.51 386.357 386.669 386.617 381.852C388.18 340.966 388.961 300.016 388.961 259C388.961 217.073 388.31 180.81 387.008 150.211C386.747 145.393 372.229 141.552 343.453 138.688C341.24 130.354 341.5 121.956 344.234 113.492Z" fill="#314D24"/>
</svg>
